# xmcd CD database file
# Copyright (C) 1993-1998 Ti Kan
#
# Track frame offsets:
#	150
#	13713
#	27148
#	39450
#	54213
#	66963
#	78110
#	91655
#	106050
#	118785
#	131475
#	143335
#	154898
#	164063
#	174533
#	185025
#	196495
#	208433
#
# Disc length: 2941 seconds
#
# Revision: 0
# Processed by: cddbd v1.5.1PL0 Copyright (c) Steve Scherf et al.
# Submitted via: CDmax 1.5
#
DISCID=f10b7b12
DTITLE=Various Artist - Blow, Brother, Blow!: 18 Blues Harmonica Classics
DYEAR=1900
DGENRE=Blues
TTITLE0=Good Morning Schoolgirl
TTITLE1=Sugar Mama Blues
TTITLE2=Juke
TTITLE3=Blue Light
TTITLE4=Back Track
TTITLE5=Little Walter's Boogie
TTITLE6=Easy
TTITLE7=Tiger Man
TTITLE8=Baker Shop Boogie
TTITLE9=I Live The Life I Love (I Love The Life I Live)
TTITLE10=Wolf Call Boogie
TTITLE11=Juke Box Boogie
TTITLE12=You Tried To Ruin Me
TTITLE13=Kissing At Midnight
TTITLE14=I Ain't Got You
TTITLE15=Signals Of Love
TTITLE16=Ninety Nine
TTITLE17=Trust My Baby
EXTD=Charly Blues Masterworks Vol.32 CD BM 32, 1993
EXTT0=Sonny Boy Williamson I
EXTT1=Sonny Boy Williamson I
EXTT2=Little Walter
EXTT3=Little Walter
EXTT4=Little Walter
EXTT5=Walter Horton
EXTT6=Walter Horton
EXTT7=Joe Hill Louis, Walter Horton
EXTT8=Willie Nix, James Cotton
EXTT9=Muddy Waters, James Cotton
EXTT10=Hot Shot Love
EXTT11=Doctor Ross
EXTT12=Snooky Pryor
EXTT13=Billy Boy Arnold
EXTT14=Jimmy Reed
EXTT15=Jimmy Reed
EXTT16=Sonny Boy Williamson II
EXTT17=Sonny Boy Williamson II
PLAYORDER=
